<?xml version="1.0" encoding="UTF-8"?>
<!DOCTYPE svg PUBLIC "-//W3C//DTD SVG 1.1//EN" "http://www.w3.org/Graphics/SVG/1.1/DTD/svg11.dtd">
<!-- Creator: CorelDRAW 2020 (64-Bit) -->
<svg xmlns="http://www.w3.org/2000/svg" xml:space="preserve" width="1122px" height="247px" version="1.1" style="shape-rendering:geometricPrecision; text-rendering:geometricPrecision; image-rendering:optimizeQuality; fill-rule:evenodd; clip-rule:evenodd"
viewBox="0 0 1120.32 247.01"
 xmlns:xlink="http://www.w3.org/1999/xlink"
 xmlns:xodm="http://www.corel.com/coreldraw/odm/2003">
 <defs>
  <style type="text/css">
   <![CDATA[
    .fil0 {fill:black;fill-rule:nonzero}
    .fil1 {fill:url(#id0);fill-rule:nonzero}
   ]]>
  </style>
  <linearGradient id="id0" gradientUnits="userSpaceOnUse" x1="178.58" y1="250.87" x2="60.41" y2="58.47">
   <stop offset="0" style="stop-opacity:1; stop-color:#00AFEF"/>
   <stop offset="0.321569" style="stop-opacity:1; stop-color:#1CD0D0"/>
   <stop offset="1" style="stop-opacity:1; stop-color:#38F2B1"/>
  </linearGradient>
 </defs>
 <g id="Layer_x0020_1">
  <metadata id="CorelCorpID_0Corel-Layer"/>
  <g id="_1279404622432">
   <path class="fil0" d="M379.82 88.27c9.37,8.14 15.07,19.57 15.07,32.94 0,11.12 -3.97,20.94 -10.72,28.63 -5.5,6.26 -12.84,11.08 -21.36,13.98l29.29 41.79c0.69,0.81 1.1,1.87 1.1,3.02 0,2.59 -2.09,4.68 -4.68,4.68l-16.66 0c-1.47,-0.01 -2.91,-0.7 -3.82,-1.99l-31.17 -44.25 -26.97 0 0 41.56c0,2.59 -2.1,4.68 -4.68,4.68l-14.6 0c-2.59,0 -4.68,-2.09 -4.68,-4.68l0 -128.61c0,-2.58 2.09,-4.68 4.68,-4.68l52.22 0c14.58,0 27.61,4.78 36.98,12.93zm-39.6 10.29l-30.32 0 0 45.3 30.32 0c9.59,0 17.49,-2.25 22.85,-6.42 4.87,-3.78 7.67,-9.29 7.67,-16.23 0,-6.95 -2.8,-12.46 -7.67,-16.23 -5.36,-4.17 -13.26,-6.42 -22.85,-6.42z"/>
   <path class="fil0" d="M429.15 94.76c-2.51,2.56 -5.97,4.17 -9.79,4.17 -3.9,0 -7.39,-1.59 -9.91,-4.11 -2.56,-2.56 -4.13,-6.1 -4.13,-9.93 0,-3.74 1.6,-7.26 4.19,-9.8 2.52,-2.48 5.99,-4.05 9.85,-4.05 3.81,0 7.25,1.59 9.75,4.08 2.53,2.54 4.11,6.03 4.11,9.77 0,3.79 -1.56,7.31 -4.07,9.87zm-2.86 118.55l-14.04 0c-2.59,0 -4.68,-2.09 -4.68,-4.68l0 -96.78c0,-2.59 2.09,-4.68 4.68,-4.68l14.04 0c2.58,0 4.68,2.09 4.68,4.68l0 96.78c0,2.59 -2.1,4.68 -4.68,4.68z"/>
   <path class="fil0" d="M524.43 115.92l0 -4.07c0,-2.59 2.09,-4.68 4.68,-4.68l14.04 0c2.58,0 4.68,2.09 4.68,4.68l0 86.48c0,13.83 -5.5,25.67 -14.9,34.07 -9.25,8.26 -22.22,13.11 -37.33,13.11 -8.13,0 -15.99,-1.36 -23,-3.68 -7.39,-2.44 -13.91,-5.99 -18.89,-10.16 -1.87,-1.37 -2.47,-3.95 -1.31,-6.03l6.09 -10.9c0.2,-0.39 0.46,-0.76 0.78,-1.09 1.77,-1.87 4.73,-1.94 6.6,-0.16 3.27,3.11 7.51,5.63 12.28,7.38 4.81,1.77 10.15,2.74 15.58,2.74 10.01,0 17.83,-2.38 23.04,-6.79 4.97,-4.21 7.66,-10.48 7.66,-18.49l0 -3.13c-2.46,2.13 -5.14,3.99 -8.02,5.54 -6.57,3.53 -14.15,5.46 -22.5,5.46 -14.32,0 -26.63,-5.31 -35.39,-14.36l0 -0.02c-8.72,-9.01 -13.84,-21.65 -13.84,-36.36 0,-14.71 5.11,-27.29 13.82,-36.25 8.76,-9.02 21.08,-14.29 35.41,-14.29 8.35,0 15.93,1.93 22.5,5.45 2.88,1.56 5.56,3.41 8.02,5.55zm-47.83 60.41c4.85,5.03 11.78,7.96 19.93,7.96 8.25,0 15.23,-2.93 20.11,-7.96 4.91,-5.05 7.79,-12.29 7.79,-20.87 0,-8.48 -2.89,-15.68 -7.81,-20.72 -4.87,-4.98 -11.85,-7.92 -20.09,-7.92 -8.14,0 -15.08,2.94 -19.94,7.94 -4.88,5.03 -7.76,12.23 -7.76,20.7 0,8.57 2.88,15.81 7.77,20.87z"/>
   <path class="fil0" d="M591.17 110.4c6.17,-3.44 13.41,-5.48 20.93,-5.48 11.97,0 22.2,4.4 29.49,11.91 7.26,7.49 11.51,18 11.51,30.21l0 61.59c0,2.59 -2.1,4.68 -4.68,4.68l-14.04 0c-2.59,0 -4.68,-2.09 -4.68,-4.68l0 -59.72c0,-6.67 -2.04,-12.28 -5.54,-16.16 -3.38,-3.74 -8.2,-5.93 -13.93,-5.93 -7.03,0 -13.45,2.43 -18.08,6.29 -4.42,3.67 -7.19,8.63 -7.19,13.93l0 61.59c0,2.59 -2.1,4.68 -4.68,4.68l-14.04 0c-2.59,0 -4.68,-2.09 -4.68,-4.68l0 -130.85c0,-2.59 2.09,-4.68 4.68,-4.68l14.04 0c2.58,0 4.68,2.09 4.68,4.68l0 36.87c1.91,-1.58 3.99,-3.01 6.21,-4.25z"/>
   <path class="fil0" d="M708.3 192.94c1.07,-0.42 1.94,-0.96 2.53,-1.55 0.27,-0.32 0.59,-0.61 0.96,-0.86 2.14,-1.43 5.04,-0.86 6.47,1.28l6.75 10.02c1.58,2.04 1.22,4.98 -0.82,6.56 -2.95,2.29 -6.29,4.1 -9.84,5.32 -3.51,1.2 -7.23,1.85 -11.01,1.85 -8.24,0 -15.3,-3.11 -20.35,-8.39 -4.99,-5.24 -7.91,-12.55 -7.91,-21l0 -57.1 -10.49 0c-2.58,0 -4.68,-2.1 -4.68,-4.68l0 -12.54c0,-2.59 2.1,-4.68 4.68,-4.68l10.49 0 0 -21.9c0,-2.59 2.09,-4.69 4.68,-4.69l14.04 0c2.58,0 4.68,2.1 4.68,4.69l0 21.9 19.09 0c2.59,0 4.68,2.09 4.68,4.68l0 12.54c0,2.58 -2.09,4.68 -4.68,4.68l-19.09 0 0 57.1c0,2.19 0.65,4.04 1.69,5.35l0.18 0.2c1.05,1.22 2.46,1.93 3.93,1.93 1.5,0 2.87,-0.26 4.02,-0.71z"/>
   <path class="fil0" d="M824.17 204.33c-8.36,6.84 -20.34,11.04 -35.79,11.04 -10.86,0 -20.64,-1.93 -29.42,-5.46 -9.29,-3.74 -17.42,-9.27 -24.48,-16.2 -1.79,-1.65 -2.02,-4.43 -0.47,-6.35l8.96 -11.16c0.16,-0.22 0.34,-0.44 0.54,-0.64 1.83,-1.83 4.79,-1.83 6.62,0 5.09,5.08 10.7,9.41 17.08,12.42 6.31,2.99 13.47,4.74 21.73,4.74 8.24,0 14.46,-2.03 18.68,-5.18 4.38,-3.29 6.59,-7.88 6.59,-12.61 0,-5.01 -2.3,-8.56 -6.71,-11.37l0 -0.02c-5.29,-3.37 -13.52,-5.87 -24.3,-8.39 -13.48,-3.13 -24.57,-6.87 -32.5,-12.89 -8.5,-6.46 -13.24,-15.21 -13.24,-27.98 0,-11.77 5.26,-22.24 14.04,-29.72 8.49,-7.24 20.27,-11.65 33.7,-11.65 10.21,0 19.16,2.02 27.16,5.5 7.88,3.43 14.76,8.26 20.97,13.95 1.92,1.62 2.22,4.48 0.66,6.46l-8.99 11.42 -0.31 0.35c-1.78,1.86 -4.74,1.92 -6.6,0.13 -5.07,-4.89 -10.61,-8.78 -16.45,-11.38 -5.47,-2.45 -11.25,-3.78 -17.19,-3.78 -6.67,0 -12.39,2.1 -16.46,5.39 -4,3.24 -6.38,7.62 -6.38,12.21 0,4.74 2.37,8 6.78,10.6 5.37,3.16 13.53,5.5 23.91,7.99l0.32 0.07c12.84,3.03 23.96,6.92 32.05,13.17 8.62,6.64 13.69,15.67 13.69,28.63 0,12.07 -4.77,23 -14.19,30.71z"/>
   <path class="fil0" d="M892.04 192.94c1.07,-0.42 1.93,-0.96 2.52,-1.55 0.28,-0.32 0.6,-0.61 0.97,-0.86 2.14,-1.43 5.04,-0.86 6.47,1.28l6.75 10.02c1.58,2.04 1.21,4.98 -0.83,6.56 -2.94,2.29 -6.28,4.1 -9.83,5.32 -3.51,1.2 -7.23,1.85 -11.01,1.85 -8.24,0 -15.31,-3.11 -20.35,-8.39 -4.99,-5.24 -7.92,-12.55 -7.92,-21l0 -57.1 -10.48 0c-2.58,0 -4.68,-2.1 -4.68,-4.68l0 -12.54c0,-2.59 2.1,-4.68 4.68,-4.68l10.48 0 0 -21.9c0,-2.59 2.1,-4.69 4.69,-4.69l14.04 0c2.58,0 4.68,2.1 4.68,4.69l0 21.9 19.09 0c2.59,0 4.68,2.09 4.68,4.68l0 12.54c0,2.58 -2.09,4.68 -4.68,4.68l-19.09 0 0 57.1c0,2.19 0.65,4.04 1.69,5.35l0.18 0.2c1.05,1.22 2.46,1.93 3.93,1.93 1.5,0 2.87,-0.26 4.02,-0.71z"/>
   <path class="fil0" d="M946.24 107.44c6.65,-1.79 12.64,-2.52 17.97,-2.52 14.08,0 24.8,4.4 32.19,11.94 7.9,8.04 11.8,19.48 11.8,32.8l0 58.97c0,2.59 -2.1,4.68 -4.68,4.68l-14.04 0c-2.58,0 -4.68,-2.09 -4.68,-4.68l0 -3.05c-2.23,1.76 -4.66,3.3 -7.2,4.6 -6.96,3.55 -14.84,5.38 -22.19,5.38 -11.51,0 -21.56,-3.47 -28.74,-9.73 -7.1,-6.21 -11.32,-15.03 -11.32,-25.84 0,-10.89 4.75,-20.02 12.41,-26.51 7.77,-6.58 18.54,-10.37 30.27,-10.37 5.23,0 10.59,0.53 15.9,1.45 3.63,0.62 7.25,1.44 10.79,2.39 -0.36,-5.54 -1.87,-11.11 -5.51,-15 -3.18,-3.42 -8.23,-5.69 -15.94,-5.69 -4.3,0 -8.66,0.98 -12.96,2.46 -4.56,1.57 -8.96,3.65 -13.12,5.78l-0.14 0.07c-2.31,1.13 -5.1,0.17 -6.23,-2.14l-5.62 -11.42c-1.12,-2.29 -0.18,-5.07 2.11,-6.22 6.84,-3.42 13.16,-5.8 18.93,-7.35zm-3.04 82.12c3.51,2.77 8.67,4.28 14.64,4.28 6.07,0 12.74,-1.66 18.06,-5.06 4.12,-2.63 7.41,-6.32 8.9,-11.08l0 -10.57c-3.31,-0.79 -6.78,-1.45 -10.35,-1.93 -4.49,-0.6 -9.24,-0.93 -14.17,-0.93 -6.33,0 -12.1,1.79 -16.18,4.83 -3.52,2.63 -5.72,6.22 -5.72,10.33 0,4.3 1.81,7.74 4.82,10.13z"/>
   <path class="fil0" d="M1062.03 240.75c-5.58,4.18 -12.01,6.06 -19.45,6.23l-0.5 0.03c-3.06,0 -6.08,-0.32 -8.98,-0.92 -2.84,-0.59 -5.54,-1.46 -8.04,-2.59 -2.23,-0.85 -3.48,-3.28 -2.82,-5.62l3.36 -11.98c0.09,-0.28 0.2,-0.55 0.33,-0.82 1.15,-2.3 3.95,-3.24 6.26,-2.09 1.25,0.63 2.66,1.1 4.17,1.42 1.61,0.34 3.35,0.51 5.16,0.51 2.29,0 4.12,-0.34 5.58,-1.19 1.52,-0.9 2.92,-2.48 4.34,-4.95l4.62 -9.85 -41.1 -94.83c-0.37,-0.67 -0.58,-1.44 -0.58,-2.25 0,-2.59 2.09,-4.68 4.68,-4.68l15.54 0c1.81,0.02 3.54,1.09 4.29,2.87l29.47 70 27.64 -69.53c0.58,-1.93 2.37,-3.34 4.49,-3.34l15.16 0c0.59,0.01 1.2,0.12 1.78,0.36 2.38,0.98 3.52,3.71 2.54,6.09l-44.18 107.64c-3.71,9.05 -8.24,15.35 -13.76,19.49z"/>
  </g>
  <path class="fil1" d="M168.48 128.9l0 37.63 0 13.09 0 0.91 0 28.3c0,2.47 -2.02,4.49 -4.49,4.49l-21.79 0 -7.37 0 -33.79 0 -7.44 0 -21.71 0c-2.48,0 -4.5,-2.02 -4.5,-4.49l0 -21.42 0 -7.79 0 -29.56c0,-2.48 2.03,-4.5 4.5,-4.5l24.7 0c2.48,0 4.5,2.02 4.5,4.5l0 29.56 33.69 0 0 -46.32c-0.01,-0.22 -0.07,-0.42 -0.2,-0.64l-0.08 -0.1 -50.17 -50.18c-0.01,0 -0.04,-0.04 -0.09,-0.04 -0.03,0 -0.06,0.02 -0.08,0.04l-50.15 50.15c-0.03,0.03 -0.06,0.08 -0.1,0.13 -0.16,0.28 -0.21,0.51 -0.21,0.82l0 0.11 0 79.36 0 12.04 0 17.16c0,2.47 -2.03,4.5 -4.5,4.5l-24.7 0c-2.48,0 -4.5,-2.03 -4.5,-4.5l0 -17.16 0 -12.04 0 -46.42 0 -44.69 0 -0.02 0 -0.07 0 -0.07 0 -0.06 0 -0.02c0.01,-1.39 0.1,-2.82 1.15,-3.87l59.26 -59.26 15.98 -15.98c1.99,-2.07 4.77,-3.36 7.86,-3.36 3.24,0 6.15,1.42 8.14,3.66l15.68 15.68 59.18 59.18c0.85,0.85 1.23,2.07 1.23,3.24l0 8.01zm50.54 16.71l0 34.01 0 8.16 0 21.05c0,2.47 -2.02,4.49 -4.49,4.49l-24.7 0c-2.48,0 -4.5,-2.02 -4.5,-4.49l0 -21.05 0 -8.16 0 -66.94 0 -0.11c-0.01,-0.31 -0.05,-0.54 -0.22,-0.82 -0.05,-0.08 -0.09,-0.13 -0.13,-0.18l-86.71 -86.71c-0.97,-1.25 -1.04,-3.2 0.14,-4.38l19.68 -19.69c0.79,-0.79 2.61,-1.15 3.46,-0.3l96.86 96.85c0.38,0.38 0.61,0.88 0.61,1.42l0 4.09 0 42.76z"/>
 </g>
</svg>
