<?xml version="1.0" encoding="UTF-8"?>
<!DOCTYPE svg PUBLIC "-//W3C//DTD SVG 1.1//EN" "http://www.w3.org/Graphics/SVG/1.1/DTD/svg11.dtd">
<!-- Creator: CorelDRAW 2020 (64-Bit) -->
<svg xmlns="http://www.w3.org/2000/svg" xml:space="preserve" width="1236px" height="247px" version="1.1" style="shape-rendering:geometricPrecision; text-rendering:geometricPrecision; image-rendering:optimizeQuality; fill-rule:evenodd; clip-rule:evenodd"
viewBox="0 0 1234.32 246.7"
 xmlns:xlink="http://www.w3.org/1999/xlink"
 xmlns:xodm="http://www.corel.com/coreldraw/odm/2003">
 <defs>
  <style type="text/css">
   <![CDATA[
    .fil2 {fill:black;fill-rule:nonzero}
    .fil0 {fill:url(#id0);fill-rule:nonzero}
    .fil1 {fill:url(#id1);fill-rule:nonzero}
   ]]>
  </style>
  <linearGradient id="id0" gradientUnits="userSpaceOnUse" x1="198.53" y1="138.23" x2="7.56" y2="136.98">
   <stop offset="0" style="stop-opacity:1; stop-color:#DB1F16"/>
   <stop offset="0.560784" style="stop-opacity:1; stop-color:#EB571C"/>
   <stop offset="1" style="stop-opacity:1; stop-color:#FC9023"/>
  </linearGradient>
  <linearGradient id="id1" gradientUnits="userSpaceOnUse" x1="246.27" y1="139.17" x2="7.56" y2="136.98">
   <stop offset="0" style="stop-opacity:1; stop-color:#FC9023"/>
   <stop offset="0.380392" style="stop-opacity:1; stop-color:#DC511B"/>
   <stop offset="1" style="stop-opacity:1; stop-color:#BC1213"/>
  </linearGradient>
 </defs>
 <g id="Layer_x0020_1">
  <metadata id="CorelCorpID_0Corel-Layer"/>
  <g id="_1746396257072">
   <path class="fil0" d="M0 121.62l0 44.95 0 46.43 0 12.04 0 17.16c0,2.48 2.02,4.5 4.5,4.5l24.71 0c2.47,0 4.49,-2.02 4.49,-4.5l0 -17.16 0 -12.04 0 -79.38 0 -0.11c0.01,-0.31 0.05,-0.54 0.22,-0.82l0.1 -0.14 50.16 -50.16c0.02,-0.02 0.05,-0.03 0.08,-0.03 0.04,0 0.08,0.03 0.08,0.03l50.19 50.19 0.01 0.01 0.06 0.1c0.14,0.22 0.19,0.41 0.21,0.64l0 46.33 -33.7 0 0 -29.57c0,-2.48 -2.02,-4.5 -4.5,-4.5l-24.7 0c-2.48,0 -4.5,2.02 -4.5,4.5l0 29.57 0 7.79 0 21.42c0,2.47 2.02,4.49 4.49,4.49l21.72 0 7.44 0 33.8 0 7.37 0 21.79 0c2.48,0 4.5,-2.02 4.5,-4.49l0 -28.3 0 -0.91 0 -13.09 0 -37.65 0 -8c0,-1.17 -0.39,-2.4 -1.23,-3.24l-59.2 -59.2 -15.68 -15.68c-1.99,-2.24 -4.9,-3.66 -8.14,-3.66 -3.09,0 -5.88,1.29 -7.86,3.36l-15.98 15.98 -59.28 59.27c-1.05,1.06 -1.14,2.49 -1.15,3.87z"/>
   <path class="fil1" d="M121.58 0.49l96.87 96.87c0.38,0.38 0.62,0.88 0.62,1.42l0 4.09 0 42.77 0 34.02 0 8.16 0 21.05c0,2.47 -2.02,4.49 -4.5,4.49l-24.7 0c-2.48,0 -4.5,-2.02 -4.5,-4.49l0 -21.05 0 -8.16 0 -66.95 0 -0.12c-0.01,-0.3 -0.05,-0.53 -0.22,-0.81 -0.05,-0.08 -0.09,-0.14 -0.13,-0.18l0 -0.02 -86.73 -86.72c-0.97,-1.25 -1.04,-3.2 0.14,-4.38l19.69 -19.69c0.78,-0.79 2.61,-1.15 3.46,-0.3z"/>
  </g>
  <g id="_1746396259520">
   <path class="fil2" d="M376.77 91.18c9.1,8 14.58,19.24 14.58,32.36 0,10.51 -3.53,19.82 -9.62,27.23 -5.38,6.54 -12.75,11.56 -21.43,14.57l30.18 42.95c0.43,0.54 0.69,1.21 0.69,1.95 0,1.72 -1.4,3.12 -3.12,3.12l-21.73 0c-0.98,-0.01 -1.94,-0.47 -2.55,-1.33l-30.52 -43.42 -24.86 0 0 41.63c0,1.72 -1.39,3.12 -3.12,3.12l-18.91 0c-1.72,0 -3.12,-1.4 -3.12,-3.12l0 -128.65c0,-1.72 1.4,-3.12 3.12,-3.12l54.12 0c14.44,0 27.17,4.7 36.29,12.71zm-38.91 11.13l-29.47 0 0 42.45 29.47 0c8.67,0 15.85,-2.11 20.76,-5.95 4.57,-3.59 7.2,-8.79 7.2,-15.27 0,-6.49 -2.63,-11.69 -7.2,-15.27 -4.91,-3.85 -12.09,-5.96 -20.76,-5.96z"/>
   <path class="fil2" d="M427.75 96.16c-2.58,2.62 -6.12,4.28 -9.97,4.28 -4,0 -7.54,-1.63 -10.1,-4.19l-0.02 -0.01c-2.63,-2.64 -4.23,-6.27 -4.23,-10.16 0,-3.8 1.62,-7.41 4.28,-10.03 2.56,-2.52 6.09,-4.14 10.07,-4.14 3.84,0 7.37,1.65 9.93,4.22 2.61,2.6 4.24,6.18 4.24,9.95 0,3.85 -1.62,7.45 -4.2,10.08zm-0.79 117.2l-18.54 0c-1.72,0 -3.12,-1.4 -3.12,-3.12l0 -96.82c0,-1.72 1.4,-3.12 3.12,-3.12l18.54 0c1.72,0 3.12,1.4 3.12,3.12l0 96.82c0,1.72 -1.4,3.12 -3.12,3.12z"/>
   <path class="fil2" d="M519.21 120.4l0 -6.98c0,-1.72 1.4,-3.12 3.13,-3.12l18.53 0c1.73,0 3.13,1.4 3.13,3.12l0 86.52c0,13.39 -5.5,24.83 -14.86,32.93 -9.24,8.01 -22.23,12.7 -37.33,12.7 -8.18,0 -16.08,-1.33 -23.14,-3.58 -7.55,-2.42 -14.15,-5.89 -19.16,-9.96 -1.22,-0.9 -1.63,-2.57 -0.9,-3.95l7.3 -13.86c0.13,-0.25 0.3,-0.48 0.5,-0.69 1.18,-1.25 3.16,-1.3 4.4,-0.11 3.2,3.03 7.44,5.45 12.22,7.13 4.94,1.74 10.45,2.68 15.97,2.68 9.7,0 17.38,-2.25 22.55,-6.41 4.95,-3.98 7.66,-9.84 7.66,-17.25l0 -5.56c-3.03,2.94 -6.46,5.41 -10.23,7.35 -6.18,3.17 -13.22,4.89 -20.91,4.89 -13.65,0 -25.47,-5.17 -33.88,-13.97 -8.32,-8.71 -13.25,-20.95 -13.25,-35.22 0,-14.26 4.92,-26.45 13.24,-35.12 8.4,-8.76 20.23,-13.88 33.89,-13.88 7.68,0 14.79,1.8 20.99,5.01 3.75,1.95 7.17,4.42 10.15,7.33zm-45.41 56.05c4.61,4.7 11.19,7.45 18.95,7.45 7.77,0 14.41,-2.76 19.07,-7.48 4.65,-4.71 7.39,-11.43 7.39,-19.36 0,-7.85 -2.74,-14.52 -7.4,-19.21 -4.66,-4.69 -11.3,-7.45 -19.06,-7.45 -7.75,0 -14.33,2.74 -18.94,7.41 -4.63,4.69 -7.34,11.38 -7.34,19.25 0,7.95 2.7,14.68 7.33,19.39z"/>
   <path class="fil2" d="M589.04 112.94c5.7,-3.08 12.36,-4.88 19.4,-4.88 11.54,0 21.39,4.23 28.38,11.44 6.99,7.2 11.07,17.33 11.07,29.13l0 61.61c0,1.72 -1.4,3.12 -3.12,3.12l-18.16 0c-1.73,0 -3.13,-1.4 -3.13,-3.12l0 -58.43c0,-6.41 -1.99,-11.81 -5.41,-15.57 -3.34,-3.69 -8.11,-5.84 -13.75,-5.84 -6.56,0 -12.54,2.3 -16.87,5.99 -4.17,3.56 -6.79,8.43 -6.79,13.74l0 60.11c0,1.72 -1.39,3.12 -3.12,3.12l-18.35 0c-1.72,0 -3.12,-1.4 -3.12,-3.12l0 -128.65c0,-1.73 1.4,-3.12 3.12,-3.12l18.35 0c1.73,0 3.12,1.39 3.12,3.12l0 37.42c2.45,-2.35 5.28,-4.4 8.38,-6.07z"/>
   <path class="fil2" d="M706.3 192.5c1.29,-0.46 2.36,-1.09 3.11,-1.8 0.23,-0.25 0.51,-0.46 0.82,-0.63 1.52,-0.8 3.41,-0.22 4.21,1.3l6.74 12.74c0.67,1.28 0.38,2.9 -0.78,3.85 -2.92,2.39 -6.35,4.32 -10.01,5.63 -3.63,1.3 -7.48,2.02 -11.26,2.02 -8.36,0 -15.51,-3.07 -20.59,-8.34 -5.05,-5.23 -8,-12.59 -8,-21.19l0 -53.8 -11.48 0c-1.72,0 -3.12,-1.4 -3.12,-3.12l0 -15.74c0,-1.72 1.4,-3.12 3.12,-3.12l11.48 0 0 -23.47c0,-1.72 1.4,-3.12 3.13,-3.12l18.16 0c1.72,0 3.12,1.4 3.12,3.12l0 23.47 19.73 0c1.72,0 3.12,1.4 3.12,3.12l0 15.74c0,1.72 -1.4,3.12 -3.12,3.12l-19.73 0 0 52.49c0,2.55 0.8,4.71 2.09,6.22 1.22,1.43 2.9,2.27 4.72,2.27 1.65,0 3.21,-0.28 4.54,-0.76z"/>
   <path class="fil2" d="M818.92 132.78l0 -51.19c0,-1.72 1.39,-3.12 3.12,-3.12l18.91 0c1.72,0 3.12,1.4 3.12,3.12l0 128.65c0,1.72 -1.4,3.12 -3.12,3.12l-18.91 0c-1.73,0 -3.12,-1.4 -3.12,-3.12l0 -53.62 -63.99 0 0 53.62c0,1.72 -1.39,3.12 -3.12,3.12l-18.91 0c-1.73,0 -3.12,-1.4 -3.12,-3.12l0 -128.65c0,-1.72 1.39,-3.12 3.12,-3.12l18.91 0c1.73,0 3.12,1.4 3.12,3.12l0 51.19 63.99 0z"/>
   <path class="fil2" d="M947.26 199.64c-9.8,9.81 -23.28,15.97 -37.9,15.97 -14.71,0 -28.27,-6.16 -38.15,-15.97 -9.89,-9.81 -16.1,-23.28 -16.1,-37.9 0,-14.62 6.2,-28.03 16.07,-37.79 9.88,-9.77 23.45,-15.89 38.18,-15.89 14.63,0 28.1,6.12 37.92,15.89 9.8,9.77 15.95,23.18 15.95,37.79 0,14.62 -6.16,28.1 -15.97,37.9zm-58.6 -15.62c5.35,5.69 12.7,9.24 20.7,9.24 7.83,0 15.09,-3.57 20.4,-9.27 5.33,-5.74 8.69,-13.63 8.69,-22.25 0,-8.54 -3.37,-16.39 -8.71,-22.11 -5.3,-5.67 -12.56,-9.23 -20.38,-9.23 -7.99,0 -15.33,3.55 -20.68,9.2 -5.4,5.72 -8.78,13.59 -8.78,22.14 0,8.64 3.37,16.54 8.76,22.28z"/>
   <path class="fil2" d="M1063.84 113.82c5.99,-3.7 13.32,-5.76 21.23,-5.76 11.03,0 20.55,4.27 27.32,11.54 6.68,7.19 10.63,17.28 10.63,29.03l0 61.61c0,1.72 -1.39,3.12 -3.12,3.12l-18.16 0c-1.73,0 -3.12,-1.4 -3.12,-3.12l0 -58.8c0,-6.36 -1.83,-11.7 -4.99,-15.4 -3.04,-3.56 -7.36,-5.64 -12.49,-5.64 -6.12,0 -11.28,1.99 -14.87,5.41 -3.54,3.37 -5.61,8.2 -5.61,13.94l0 60.49c0,1.72 -1.39,3.12 -3.12,3.12l-18.16 0c-1.72,0 -3.12,-1.4 -3.12,-3.12l0 -58.8c0,-6.36 -1.83,-11.7 -4.99,-15.4 -3.03,-3.56 -7.36,-5.64 -12.49,-5.64 -6.12,0 -11.28,1.99 -14.87,5.41 -3.54,3.37 -5.6,8.2 -5.6,13.94l0 60.49c0,1.72 -1.4,3.12 -3.13,3.12l-18.54 0c-1.72,0 -3.12,-1.4 -3.12,-3.12l0 -96.82c0,-1.72 1.4,-3.12 3.12,-3.12l18.54 0c1.73,0 3.13,1.4 3.13,3.12l0 4.05c1.89,-1.84 4.02,-3.46 6.37,-4.81 5.12,-2.94 11.2,-4.6 17.85,-4.6 7.53,0 14.41,2.01 20.19,5.63 4.23,2.65 7.86,6.16 10.71,10.36 2.6,-4.14 6.16,-7.6 10.41,-10.23z"/>
   <path class="fil2" d="M1167.45 186.13c4.74,4.25 11.04,6.76 18.43,6.76 4.68,0 9.76,-1.04 14.35,-2.78 4.54,-1.72 8.55,-4.09 11.13,-6.76l0.06 -0.06c1.24,-1.2 3.21,-1.17 4.4,0.06l11.57 11.94c1.2,1.18 1.24,3.12 0.08,4.35 -4.52,4.82 -11.05,8.74 -18.22,11.48 -7.51,2.88 -15.79,4.49 -23.18,4.49 -14.59,0 -28.06,-5.85 -37.77,-15.78 -9.33,-9.53 -15.17,-22.82 -15.17,-38.28 0,-15.21 5.62,-28.45 14.74,-37.97 9.33,-9.72 22.31,-15.52 36.7,-15.52 15.62,0 28,5.91 36.55,16.39 8.59,10.52 13.2,25.6 13.2,43.84 0,1.73 -1.4,3.13 -3.12,3.13l-72.41 0c1.53,5.93 4.52,11 8.66,14.71zm34.6 -49.45c-4.01,-3.72 -9.57,-5.9 -16.73,-5.9 -6.78,0 -12.91,2.29 -17.65,6.35 -3.86,3.31 -6.83,7.82 -8.52,13.25l50.34 0c-1.3,-5.57 -3.77,-10.3 -7.44,-13.7z"/>
  </g>
 </g>
</svg>
